<?xml version="1.0" standalone="no"?>
<!DOCTYPE svg PUBLIC "-//W3C//DTD SVG 20010904//EN"
 "http://www.w3.org/TR/2001/REC-SVG-20010904/DTD/svg10.dtd">
<svg version="1.0" xmlns="http://www.w3.org/2000/svg"
 width="225.000000pt" height="225.000000pt" viewBox="0 0 225.000000 225.000000"
 preserveAspectRatio="xMidYMid meet">

<g transform="translate(0.000000,225.000000) scale(0.100000,-0.100000)"
fill="#000000" stroke="none">
<path d="M1090 2113 c-8 -3 -27 -17 -42 -31 -22 -20 -28 -35 -28 -68 0 -57 31
-93 86 -101 33 -4 45 -1 71 21 39 33 49 73 29 119 -18 45 -75 74 -116 60z"/>
<path d="M740 2056 c-18 -23 -23 -81 -10 -120 14 -45 91 -148 126 -171 l26
-17 -4 93 c-6 122 -31 180 -86 208 -34 17 -42 18 -52 7z"/>
<path d="M1440 2048 c-41 -21 -47 -29 -68 -91 -17 -52 -22 -85 -20 -140 l3
-72 53 53 c63 63 115 162 105 201 -3 14 -11 36 -17 49 l-12 22 -44 -22z"/>
<path d="M937 1913 c5 -16 7 -67 7 -115 l-1 -87 39 -15 c21 -9 42 -16 47 -16
23 0 -18 149 -58 213 -35 53 -45 60 -34 20z"/>
<path d="M1276 1918 c-33 -51 -70 -145 -74 -190 -2 -26 -3 -48 0 -48 2 0 24 7
49 15 l44 15 0 115 c0 63 -1 115 -2 115 -2 0 -9 -10 -17 -22z"/>
<path d="M461 1844 c-41 -37 -50 -87 -22 -130 43 -70 140 -63 175 11 31 65 -7
132 -80 142 -35 4 -46 1 -73 -23z"/>
<path d="M1658 1854 c-75 -40 -63 -154 19 -185 56 -21 133 33 133 92 0 85 -79
133 -152 93z"/>
<path d="M706 1820 c15 -92 81 -226 106 -218 6 2 20 20 30 40 l19 36 -68 68
c-37 38 -74 78 -81 89 -11 18 -12 16 -6 -15z"/>
<path d="M1496 1804 c-16 -25 -50 -62 -77 -81 -42 -32 -46 -39 -38 -60 15 -41
29 -63 39 -63 18 0 78 104 95 163 23 81 16 97 -19 41z"/>
<path d="M1270 1640 c-25 -9 -51 -18 -59 -21 -11 -4 -10 -16 4 -67 10 -34 22
-65 26 -68 10 -6 84 26 111 47 16 13 16 18 -10 69 l-27 55 -45 -15z"/>
<path d="M890 1601 c-12 -27 -19 -54 -16 -60 11 -17 105 -63 116 -56 10 6 40
98 40 121 0 11 -84 44 -110 44 -4 0 -17 -22 -30 -49z"/>
<path d="M1090 1592 c0 -11 -8 -44 -19 -75 l-18 -57 64 0 c58 0 64 2 58 18 -4
9 -15 43 -23 75 -14 48 -20 57 -39 57 -16 0 -23 -6 -23 -18z"/>
<path d="M465 1572 c36 -24 93 -77 122 -114 l21 -28 46 21 c25 11 46 23 46 27
0 23 -152 97 -220 107 l-45 6 30 -19z"/>
<path d="M1717 1579 c-46 -11 -110 -43 -156 -77 l-34 -25 48 -25 c47 -23 49
-24 62 -6 26 36 78 88 117 116 42 30 34 34 -37 17z"/>
<path d="M253 1558 c-27 -13 -27 -15 -8 -60 20 -50 92 -79 209 -86 87 -5 88
-5 77 16 -16 30 -89 90 -143 118 -50 25 -98 30 -135 12z"/>
<path d="M1841 1544 c-29 -15 -75 -50 -103 -78 l-50 -51 68 -3 c96 -4 199 29
225 72 26 42 24 65 -7 76 -41 16 -77 12 -133 -16z"/>
<path d="M805 1484 c-14 -14 -14 -18 -2 -33 8 -9 25 -36 37 -61 12 -25 24 -47
26 -49 5 -6 84 70 84 81 0 4 -16 14 -36 23 -19 8 -48 24 -64 35 -26 19 -30 19
-45 4z"/>
<path d="M1351 1464 c-30 -18 -59 -35 -65 -37 -11 -5 61 -87 76 -87 4 0 14 16
23 36 8 19 24 49 36 65 17 24 18 33 9 44 -16 19 -15 19 -79 -21z"/>
<path d="M695 1404 c-22 -13 -44 -25 -48 -27 -12 -4 25 -117 38 -117 27 0 116
32 121 43 5 14 -53 128 -64 126 -4 0 -25 -12 -47 -25z"/>
<path d="M1450 1368 c-29 -57 -30 -63 -15 -75 23 -16 117 -36 125 -26 7 9 32
105 28 108 -8 5 -101 55 -103 55 -2 0 -17 -28 -35 -62z"/>
<path d="M372 1336 c52 -43 220 -98 233 -76 3 4 -2 27 -10 51 l-15 44 -116 0
c-114 0 -115 0 -92 -19z"/>
<path d="M1753 1353 l-101 -4 -11 -31 c-21 -61 -17 -66 42 -56 54 9 197 74
197 89 0 5 -6 8 -12 7 -7 -1 -59 -4 -115 -5z"/>
<path d="M233 1266 c-38 -17 -53 -43 -53 -91 0 -50 15 -74 57 -91 46 -20 86
-10 118 28 34 41 33 88 -2 128 -33 36 -76 45 -120 26z"/>
<path d="M1899 1257 c-66 -44 -61 -129 10 -171 31 -18 37 -18 75 -5 83 29 96
135 22 180 -41 25 -66 24 -107 -4z"/>
<path d="M770 1219 c-25 -10 -55 -18 -67 -18 -17 -1 -23 -7 -23 -24 0 -23 -2
-22 130 -58 12 -3 16 8 18 50 2 30 0 57 -5 61 -4 4 -28 -1 -53 -11z"/>
<path d="M1404 1227 c-3 -8 -4 -36 -2 -63 2 -38 6 -48 18 -45 80 21 126 37
132 45 12 18 -4 34 -44 40 -22 4 -53 13 -69 22 -25 12 -30 13 -35 1z"/>
<path d="M536 1089 c-51 -12 -160 -64 -177 -85 -12 -15 -11 -16 11 -9 14 5 67
8 118 7 101 -1 104 1 114 68 4 29 -10 32 -66 19z"/>
<path d="M1630 1081 c0 -10 7 -34 15 -53 l14 -35 53 8 c29 5 69 6 88 3 19 -3
49 -8 65 -10 26 -4 23 -1 -24 30 -53 35 -114 59 -178 70 -28 5 -33 2 -33 -13z"/>
<path d="M656 1034 c-10 -31 -16 -57 -14 -58 2 -2 25 -15 53 -30 47 -26 50
-26 63 -9 21 27 53 104 47 113 -6 10 -92 40 -115 40 -11 0 -22 -18 -34 -56z"/>
<path d="M1473 1074 c-49 -18 -54 -35 -23 -92 36 -68 33 -67 86 -36 27 15 50
28 52 29 1 1 -4 26 -11 56 -16 62 -32 69 -104 43z"/>
<path d="M850 979 c-7 -17 -24 -47 -38 -67 -22 -32 -22 -37 -8 -48 13 -9 29
-5 84 24 37 19 68 36 69 37 5 3 -80 85 -87 85 -4 0 -13 -14 -20 -31z"/>
<path d="M1315 970 c-33 -34 -37 -42 -25 -50 8 -5 18 -10 23 -10 4 0 25 -11
47 -25 64 -41 95 -26 58 27 -10 15 -25 43 -33 62 -9 20 -19 36 -23 36 -4 0
-26 -18 -47 -40z"/>
<path d="M401 939 c-89 -18 -131 -40 -152 -80 -26 -51 -25 -55 18 -72 43 -17
73 -11 140 29 45 26 139 112 131 119 -9 10 -98 12 -137 4z"/>
<path d="M1723 942 l-33 -3 22 -29 c26 -36 119 -101 173 -122 36 -14 44 -14
78 -1 42 17 46 33 18 79 -31 51 -152 86 -258 76z"/>
<path d="M574 880 c-16 -23 -54 -59 -84 -82 l-55 -41 45 7 c53 8 141 46 188
83 l34 26 -28 17 c-56 35 -68 33 -100 -10z"/>
<path d="M1578 899 c-21 -11 -38 -24 -38 -28 0 -16 113 -81 168 -97 67 -20
100 -15 56 9 -18 9 -56 43 -86 77 -30 33 -57 60 -59 60 -2 -1 -21 -10 -41 -21z"/>
<path d="M1061 883 c2 -29 38 -148 45 -150 18 -6 30 14 47 74 9 35 17 67 17
73 0 5 -24 10 -55 10 -30 0 -55 -3 -54 -7z"/>
<path d="M926 846 c-26 -14 -52 -28 -57 -33 -10 -10 41 -113 56 -113 6 0 30 6
55 14 42 13 45 16 44 47 -1 37 -28 109 -41 109 -4 0 -30 -11 -57 -24z"/>
<path d="M1230 846 c-13 -36 -32 -108 -28 -111 2 -2 28 -12 59 -22 l55 -19 25
53 c14 29 23 57 20 62 -6 8 -105 61 -116 61 -3 0 -10 -11 -15 -24z"/>
<path d="M776 713 c-36 -49 -60 -108 -72 -178 l-7 -40 36 46 c20 26 57 65 83
87 l48 41 -19 41 c-10 22 -22 43 -26 46 -5 3 -24 -17 -43 -43z"/>
<path d="M1393 715 l-21 -49 36 -28 c40 -31 73 -67 104 -113 l20 -30 -6 46
c-7 58 -44 143 -83 188 l-29 34 -21 -48z"/>
<path d="M467 669 c-9 -5 -24 -24 -33 -41 -31 -61 7 -134 77 -144 43 -6 78 12
102 54 17 29 18 39 8 72 -6 22 -21 46 -34 55 -24 17 -93 20 -120 4z"/>
<path d="M1636 649 c-45 -53 -33 -125 26 -155 99 -51 197 78 119 157 -24 23
-38 29 -74 29 -38 0 -49 -5 -71 -31z"/>
<path d="M983 656 c-18 -6 -35 -14 -38 -17 -8 -8 -12 -229 -4 -229 14 0 80
151 88 199 10 66 9 67 -46 47z"/>
<path d="M1200 641 c0 -43 35 -144 67 -192 14 -21 26 -39 27 -39 0 0 1 52 1
115 l0 115 -30 9 c-16 5 -38 12 -47 16 -15 6 -18 2 -18 -24z"/>
<path d="M841 574 c-44 -37 -109 -137 -117 -180 -6 -33 11 -104 26 -104 29 0
79 33 92 62 36 77 52 164 40 217 l-7 34 -34 -29z"/>
<path d="M1350 530 c0 -86 33 -195 66 -216 12 -8 35 -16 50 -17 25 -2 30 3 41
37 13 36 11 43 -15 100 -28 58 -114 166 -133 166 -5 0 -9 -31 -9 -70z"/>
<path d="M1049 411 c-23 -24 -29 -38 -29 -73 0 -24 6 -50 13 -59 47 -62 153
-46 177 26 34 103 -85 181 -161 106z"/>
</g>
</svg>
